<svg xmlns="http://www.w3.org/2000/svg" viewBox="0 0 224 100">
  <path fill="#000" d="M65.15 44.573a6.28 6.28 0 0 1 2.123-1.912c.866-.484 1.904-.727 3.114-.727.744 0 1.45.088 2.11.264.66.177 1.252.442 1.773.795.52.353.958.806 1.31 1.353.354.55.597 1.206.728 1.97h2.655c-.184-1.172-.533-2.172-1.046-3.004a7.125 7.125 0 0 0-1.9-2.055 7.592 7.592 0 0 0-2.57-1.185 11.99 11.99 0 0 0-3.06-.378c-1.584 0-2.967.294-4.148.878a8.713 8.713 0 0 0-2.962 2.362c-.79.987-1.387 2.139-1.786 3.45-.4 1.31-.601 2.693-.601 4.147 0 1.303.214 2.56.643 3.77a9.69 9.69 0 0 0 1.87 3.21 9.029 9.029 0 0 0 2.988 2.223c1.172.55 2.504.824 3.996.824a9.408 9.408 0 0 0 3.492-.685c1.155-.458 2.122-1.206 2.904-2.248l.697 2.487h1.677V49.607h-8.745v2.235h6.37a6.8 6.8 0 0 1-.36 2.555 5.802 5.802 0 0 1-1.245 2.068 5.784 5.784 0 0 1-2.025 1.382c-.803.337-1.723.505-2.765.505-1.118 0-2.101-.219-2.946-.656a6.452 6.452 0 0 1-2.139-1.76 7.805 7.805 0 0 1-1.31-2.543 10.04 10.04 0 0 1-.446-3.005c0-1.046.13-2.1.39-3.113a8.37 8.37 0 0 1 1.215-2.71v.008ZM97.697 48.581c.55-.911.824-1.975.824-3.185 0-1.622-.534-2.895-1.606-3.828-1.071-.933-2.555-1.395-4.454-1.395h-9.388V60.12h2.656v-8.522h6.48c.651 0 1.172.096 1.563.294.39.197.706.458.95.781.244.328.42.71.53 1.148.113.437.205.899.28 1.382.093.483.148.98.169 1.48.017.504.038.974.055 1.411.016.437.058.832.126 1.19.063.352.189.634.378.836h2.962a3.525 3.525 0 0 1-.63-1.16 8.846 8.846 0 0 1-.32-1.383c-.075-.483-.121-.979-.138-1.479a32.875 32.875 0 0 0-.084-1.479c-.055-.483-.135-.95-.235-1.395-.101-.446-.26-.853-.475-1.215a3.107 3.107 0 0 0-.866-.937c-.361-.26-.832-.445-1.412-.559v-.054c1.21-.336 2.089-.958 2.64-1.87l-.005-.009Zm-3.215.097c-.42.269-.907.454-1.466.546a10.8 10.8 0 0 1-1.761.14h-5.53v-6.956h6.593c1.248 0 2.152.316 2.71.95.56.635.837 1.454.837 2.458 0 .727-.126 1.32-.378 1.774-.252.458-.589.82-1.005 1.088Z"></path>
  <path fill="#000" d="M142.27 60.117V40.169h-2.513v16.174h-.055L129.197 40.17h-2.543l3.232-5.828.143-.261-.294-.046a8.204 8.204 0 0 0-1.328-.105c-1.723 0-3.48.668-5.215 1.983-1.711 1.299-3.354 2.916-4.883 4.816-1.526 1.89-3.341 4.353-5.4 7.32l-2.16 3.068a8.91 8.91 0 0 0-2.618-2.093 7.4 7.4 0 0 0-3.479-.857c-1.375 0-2.454.437-3.207 1.302-.752.866-1.05 1.963-.886 3.265.138 1.089.55 2.198 1.218 3.303a12.294 12.294 0 0 0 2.45 2.879c-3.521 3.395-7.01 5.114-10.37 5.114-.795 0-1.514-.151-2.136-.445-.621-.299-1.113-.664-1.458-1.089-.34-.416-.538-.82-.588-1.193-.025-.202 0-.353.088-.47.105-.144.277-.303.509-.471a2.6 2.6 0 0 0 .559-.492c.142-.185.201-.425.163-.71a1.13 1.13 0 0 0-.344-.698c-.198-.189-.454-.281-.76-.281-.4 0-.745.23-1.022.689-.26.433-.357.954-.281 1.555.163 1.294.727 2.361 1.668 3.164.941.802 2.168 1.21 3.643 1.21 1.92 0 3.816-.492 5.631-1.462 1.757-.937 3.538-2.265 5.291-3.942a14.54 14.54 0 0 0 6.126 2.816l-1.403 2.382h3.572l1.218-2.193c1.954-.206 3.694-.971 5.182-2.274 1.487-1.307 2.912-2.874 4.24-4.656l.248-.336h-.967l-.576.702c-1.201 1.508-2.441 2.803-3.685 3.849-1.122.946-2.45 1.559-3.954 1.828l11.548-20.83v19.443h2.512V44.12h.055l10.422 16.006h2.903l.009-.008Zm-29.193-1.53c.063-.693.046-1.42-.05-2.172a11.594 11.594 0 0 0-.845-3.034 8.639 8.639 0 0 0-.916-1.618l2.29-3.274c2.862-4.172 5.429-7.471 7.631-9.795 2.017-2.13 4.005-3.425 5.917-3.853l-14.027 23.742v.004Zm-.849-2.118c.193 1.53.051 2.975-.416 4.27l-.466.81a11.757 11.757 0 0 1-3.27-.966 11.746 11.746 0 0 1-2.706-1.727c1.761-1.765 3.585-3.942 5.425-6.48.265.42.504.858.71 1.299.366.928.614 1.866.732 2.79l-.009.004Zm-9.543-4.748a3.446 3.446 0 0 1 1.265-1.618c.584-.412 1.315-.622 2.168-.622.748 0 1.505.206 2.248.614.71.386 1.353.928 1.917 1.605-2.064 2.807-3.904 5.034-5.472 6.622a9.57 9.57 0 0 1-1.559-2.054 6.728 6.728 0 0 1-.811-2.42 4.402 4.402 0 0 1 .24-2.136l.004.009ZM146.573 60.117h6.845c1.656 0 3.093-.232 4.303-.698 1.21-.466 2.206-1.139 2.988-2.025.781-.883 1.357-1.976 1.731-3.27.374-1.294.559-2.778.559-4.454 0-3.202-.828-5.59-2.488-7.152-1.659-1.563-4.021-2.345-7.097-2.345h-6.846V60.12l.005-.005Zm2.655-17.713h4.472c1.231 0 2.265.172 3.101.517a5.085 5.085 0 0 1 2.055 1.509c.529.66.912 1.462 1.147 2.403.231.942.349 2.009.349 3.198 0 1.19-.126 2.278-.379 3.144-.252.865-.571 1.588-.962 2.164-.391.575-.832 1.033-1.328 1.37a6.377 6.377 0 0 1-1.496.768 6.31 6.31 0 0 1-1.424.337c-.446.046-.82.071-1.118.071h-4.412V42.408l-.005-.004ZM56.33 1.441h-3.433v26.903h3.434V1.44ZM70.429 1.441h-9.812v26.903H71.29c7.77 0 12.552-5.072 12.552-13.493 0-8.422-5.11-13.41-13.409-13.41h-.004Zm.777 23.797H64.05V4.547h6.459c6.135 0 9.896 3.883 9.896 10.304 0 6.42-3.475 10.383-9.199 10.383v.004ZM89.515 3.933h.08l16.069 24.41h4.051V1.442h-3.273v22.323h-.08L91.763 1.44h-5.517v26.903h3.27V3.934ZM117.044 1.441h-3.433v26.903h3.433V1.44ZM120.473 1.441h-1.013v26.903h1.013V1.44ZM140.181 28.751c5.358 0 8.342-2.332 9.161-5.395h.042c-.08 1.962-.206 3.883-.328 4.988h3.232V15.422h-12.88v2.534h9.447v.777c0 4.047-3.312 7.073-8.67 7.073-5.357 0-9.896-4.131-9.896-10.632 0-6.5 4.417-11.04 10.098-11.04 4.866 0 8.463 2.535 8.463 6.83 0 .407 0 .899-.042 1.432h3.19c.042-.655.042-1.269.042-1.592 0-6.135-4.866-9.77-11.653-9.77-7.644 0-13.535 5.681-13.535 14.106 0 8.426 5.681 13.616 13.329 13.616v-.005ZM159.684 15.75h16.518v12.594h3.438V1.44h-3.438v11.447h-16.518V1.441h-3.434v26.903h3.434V15.75ZM190.729 28.344h3.438V4.509h8.913V1.441h-21.263V4.51h8.912v23.835ZM28.07 15.25c0-2.572 1.224-4.106 3.27-4.106 1.673 0 2.597 1.013 2.597 2.853v7.131h2.236v-5.97c0-2.514 1.222-4.014 3.269-4.014 1.66 0 2.572 1.038 2.572 2.92v7.064h2.235V13.67c0-2.823-1.647-4.58-4.299-4.58-1.933 0-3.425.95-4.034 2.521-.525-1.571-2.021-2.52-4.046-2.52-1.74 0-3.114.856-3.833 2.344l.034-2.16h-2.24v11.85h2.236v-5.879l.004.005Z"></path>
  <path fill="#000" d="M34.79 30.189c8.325 0 15.094-6.77 15.094-15.095C49.884 6.77 43.11 0 34.79 0S19.696 6.77 19.696 15.094c0 8.325 6.77 15.095 15.094 15.095Zm0-29.349c7.858 0 14.254 6.396 14.254 14.254S42.648 29.348 34.79 29.348s-14.254-6.396-14.254-14.254S26.928.84 34.79.84ZM122.822 12.623a1.092 1.092 0 1 0 0-2.184 1.092 1.092 0 0 0 0 2.184ZM122.822 19.347a1.092 1.092 0 1 0 0-2.185 1.092 1.092 0 0 0 0 2.185ZM13.573 70.79C5.967 70.79 0 76.064 0 84.527c0 8.464 5.971 13.985 13.573 13.985s13.573-5.357 13.573-13.984c0-8.628-5.971-13.738-13.573-13.738Zm.004 24.424c-6.526 1.189-11.989-1.912-11.993-8.497 0-6.467 5.455-11.439 11.98-12.628 6.527-1.189 11.99 1.79 11.994 8.258 0 6.584-5.455 11.678-11.98 12.87v-.003ZM52.225 78.846c0-4.66-3.354-7.648-10.098-7.648H30.966V98.1h3.433V86.897h8.421c4.459 0 5.724 1.84 5.724 4.702V98.1h3.517v-6.5c0-3.354-1.227-5.766-5.03-6.216v-.08c3.681-.45 5.194-2.945 5.194-6.459Zm-10.14 5.521h-7.686v-10.06h7.728c4.538 0 6.749 1.84 6.749 4.824 0 3.148-1.883 5.232-6.787 5.232l-.004.004ZM101.987 82.648H85.468v-11.45h-3.433V98.1h3.433V85.51h16.519V98.1h3.433V71.198h-3.433v11.45ZM112.842 85.834h10.988V83.3h-10.988v-8.993h14.392v-3.11h-17.825V98.1h18.195v-3.105h-14.762v-9.161ZM151.224 74.265h8.913V98.1h3.438V74.265h8.913v-3.067h-21.264v3.067ZM196.024 78.846c0-4.66-3.353-7.648-10.098-7.648h-11.161V98.1h3.433V86.897h8.422c4.458 0 5.723 1.84 5.723 4.702V98.1h3.517v-6.5c0-3.354-1.227-5.766-5.03-6.216v-.08c3.681-.45 5.194-2.945 5.194-6.459Zm-10.14 5.521h-7.686v-10.06h7.728c4.539 0 6.745 1.84 6.745 4.824 0 3.148-1.879 5.232-6.787 5.232v.004ZM26.1 70.538a1.67 1.67 0 0 0-1.668 1.668c0 .92.748 1.669 1.668 1.669a1.67 1.67 0 0 0 1.668-1.669 1.67 1.67 0 0 0-1.668-1.668ZM78.8 89.46c-.215.724-.572 1.497-1.063 2.295-.484.79-1.143 1.526-1.955 2.181-.81.656-1.802 1.21-2.941 1.643-1.135.433-2.467.652-3.954.652a9.68 9.68 0 0 1-.992-.05V72.042c.29-.021.58-.034.882-.034.828 0 1.652.105 2.446.311.782.206 1.454.538 2 .996.542.45.942 1.046 1.185 1.77.244.722.223 1.638-.058 2.722-.282.97-.14 1.706.424 2.19.538.458 1.114.689 1.719.689.727 0 1.32-.257 1.769-.765.441-.5.664-1.101.664-1.79 0-.992-.26-1.925-.782-2.77-.513-.836-1.244-1.575-2.172-2.193-.92-.614-2.026-1.105-3.282-1.462-1.257-.358-2.669-.542-4.203-.542-.201 0-.399.012-.596.025v-1.883h-.42v1.916c-1.475.13-2.921.467-4.304 1.022a14.364 14.364 0 0 0-4.521 2.861 14.053 14.053 0 0 0-3.13 4.375c-.778 1.685-1.173 3.58-1.173 5.622 0 1.866.336 3.623 1 5.22a12.074 12.074 0 0 0 2.828 4.143c1.21 1.151 2.685 2.059 4.391 2.706 1.484.563 3.131.882 4.913.954V100h.42v-1.866c.126 0 .252.009.382.009 1.538 0 2.967-.257 4.245-.761 1.273-.504 2.407-1.168 3.365-1.98a11.52 11.52 0 0 0 2.375-2.71c.622-.991 1.05-1.987 1.277-2.966l.038-.164-.706-.34-.071.235v.004Zm-11.321 6.666a8.919 8.919 0 0 1-2.635-.807 10.08 10.08 0 0 1-3.265-2.53c-.925-1.076-1.647-2.366-2.156-3.845-.508-1.475-.765-3.093-.765-4.803s.21-3.375.63-4.841c.417-1.458 1.06-2.748 1.909-3.84a8.82 8.82 0 0 1 3.172-2.547c.925-.442 1.967-.723 3.11-.845v24.058ZM220.292 71.366l-2.656 6.543h-13.943l-2.618-6.543h-4.009l11.367 26.902h4.089l11.367-26.902h-3.597Zm-9.648 23.755h-.08l-5.846-14.678h11.897l-5.971 14.678ZM148.434 85.196c-1.74-.912-4.551-1.379-7.24-1.765-2.324-.345-5.543-.858-6.837-1.517-1.131-.58-1.765-1.606-1.727-3.324.063-2.942 3.214-4.883 7.589-4.854 4.618.03 7.194 2.093 7.089 6.795l3.189.021c.135-6.215-2.773-9.711-10.295-9.762-6.421-.042-10.909 3.278-11.014 8.06-.054 2.534 1.009 4.341 2.542 5.29 1.454.909 4.383 1.585 7.157 1.93 2.324.344 5.383.689 6.841 1.315 1.378.58 2.093 1.525 2.055 3.244-.055 2.576-1.828 4.975-8.001 4.933-5.724-.037-7.627-2.79-7.543-6.677l-3.19-.02c-.105 4.865 2.039 9.58 10.666 9.639 8.791.059 11.413-3.971 11.505-8.06.055-2.454-1.008-4.34-2.79-5.253l.004.005Z"></path>
</svg>
