<svg xmlns="http://www.w3.org/2000/svg" viewBox="0 0 900 900">
    <path fill="none" stroke="#000" stroke-width=".5" d="M164.198 60.738h-.498c-2.037 22.123-3.978 39.109-7.121 52.277-3.143 13.165-7.483 22.487-14.302 29.304s-16.143 11.153-29.307 14.293c-13.167 3.141-30.15 5.079-52.265 7.117v.497c22.125 2.038 39.11 3.978 52.279 7.122 13.166 3.142 22.489 7.482 29.306 14.301s11.153 16.142 14.294 29.306c3.141 13.166 5.079 30.148 7.116 52.262h.498c2.037-22.123 3.978-39.109 7.121-52.277 3.143-13.165 7.483-22.487 14.302-29.304 6.819-6.816 16.143-11.153 29.308-14.293 13.166-3.141 30.148-5.079 52.264-7.117v-.497c-22.124-2.038-39.111-3.978-52.279-7.121-13.166-3.143-22.489-7.483-29.306-14.302-6.816-6.819-11.153-16.142-14.294-29.306-3.14-13.166-5.079-30.147-7.116-52.262Zm674.711 589.02-.081.161.127.127.035.035.012.012.014.01c4.835 3.687 9.527 7.58 13.904 11.957 52.627 52.625 52.627 138.237 0 190.862-25.514 25.479-59.405 39.521-95.452 39.521s-69.972-14.042-95.451-39.52c-4.378-4.413-8.306-9.105-11.993-13.974l-.125-.165-.186.092a423.445 423.445 0 0 1-188.848 44.478c-82.938 0-165.807-24.292-237.121-72.633l-.141-.096-.141.097c-7.243 4.979-14.415 9.888-21.517 14.553h-.001c-51.837 34.227-94.27 56.317-126.617 66.968-16.174 5.325-29.813 7.786-40.84 7.482-11.023-.305-19.415-3.373-25.127-9.085-5.712-5.712-8.78-14.103-9.085-25.127-.304-11.025 2.157-24.664 7.482-40.837C18.41 792.33 40.5 749.899 74.727 698.063l-.208-.137.209.137c5.988-9.086 12.325-18.347 18.87-27.714l.091-.129-.078-.138c-70.282-123.449-73.5-275.008-9.484-400.968a132.076 132.076 0 0 0 5.308 3.835c-78.856 156.135-53.207 351.973 77.123 482.229l.177-.177-.176.177c9.931 9.896 20.245 19.13 30.872 27.84l.138.113.152-.093c7.802-4.807 15.814-9.858 24.175-15.396 181.57-119.881 425.89-364.192 545.775-545.754 5.539-8.361 10.591-16.373 15.397-24.175l.094-.151-.113-.138c-8.711-10.627-17.945-20.976-27.842-30.872C674.051 85.399 567.458 44.84 460.865 44.84c-64.555 0-129.077 14.875-187.941 44.626a131.153 131.153 0 0 0-3.835-5.308c125.965-64.014 277.496-60.795 400.95 9.45l.137.078.13-.09a1270.944 1270.944 0 0 1 27.75-18.871c51.837-34.227 94.27-56.317 126.617-66.968 16.174-5.325 29.813-7.786 40.839-7.482 11.024.305 19.416 3.373 25.128 9.085 5.712 5.712 8.78 14.103 9.085 25.127.304 11.025-2.157 24.664-7.482 40.837-10.652 32.346-32.743 74.777-66.971 126.613-4.665 7.102-9.539 14.274-14.553 21.516l-.098.141.096.142c86.175 127.064 95.573 290.917 28.192 426.022Zm-581.98-392.805c-45.368 45.366-115.68 50.643-166.85 15.83l.016-.031-.182-.123c-1.945-1.32-3.822-2.71-5.7-4.136l-.24-.181-.02.04a132.542 132.542 0 0 1-12.984-11.399c-51.338-51.336-51.338-134.615 0-185.951 51.339-51.337 134.621-51.337 185.96 0a132.646 132.646 0 0 1 11.398 12.983l-.04.02.181.239a157.49 157.49 0 0 1 4.138 5.702l.124.18.029-.016c34.814 51.168 29.537 121.478-15.83 166.843ZM676.194 96.695l-.349.218.354.21a422.445 422.445 0 0 1 83.53 64.837c9.501 9.501 18.376 19.35 26.765 29.479l.224.271.182-.302c22.598-37.47 36.668-68.139 42.639-91.564 5.965-23.405 3.866-39.679-6.036-48.226-9.892-8.54-27.451-9.257-52.109-1.883-24.68 7.38-56.562 22.892-95.2 46.96ZM97.092 676.208l-.21-.355-.218.35c-24.069 38.636-39.579 70.517-46.957 95.196-7.371 24.657-6.65 42.215 1.89 52.107 8.551 9.902 24.826 12 48.23 6.035 23.425-5.97 54.091-20.04 91.554-42.636l.301-.182-.271-.225c-10.128-8.388-19.978-17.263-29.479-26.764l-.171.172.171-.172a420.383 420.383 0 0 1-64.84-83.526Zm132.393 130.266-.299.21.304.203c124.469 83.244 284.167 92.129 416.232 26.795l.258-.127-.163-.238c-15.155-22.176-23.358-48.383-23.358-75.843 0-36.081 14.043-69.97 39.522-95.449 25.515-25.478 59.405-39.521 95.452-39.521 27.461 0 53.635 8.203 75.847 23.358l.238.162.127-.258c65.371-132.06 56.45-291.786-26.796-416.216l-.204-.304-.209.3C670.497 424.15 424.097 670.575 229.485 806.474Zm527.948 79.504c34.334 0 66.576-13.363 90.861-37.647 50.106-50.104 50.106-131.61 0-181.714-24.25-24.284-56.527-37.648-90.861-37.648s-66.575 13.364-90.86 37.647c-24.285 24.25-37.649 56.525-37.649 90.858 0 34.332 13.364 66.573 37.649 90.857 24.25 24.284 56.526 37.647 90.86 37.647Zm100.482-128.504c-20.813 1.948-36.985 3.857-49.653 6.878-13.209 3.151-22.634 7.518-29.545 14.427-6.91 6.908-11.281 16.331-14.435 29.541-3.024 12.669-4.935 28.845-6.884 49.666-1.948-20.812-3.857-36.984-6.878-49.651-3.152-13.208-7.519-22.633-14.427-29.543-6.909-6.911-16.332-11.281-29.543-14.435-12.67-3.024-28.846-4.935-49.668-6.883 20.813-1.949 36.986-3.857 49.653-6.879 13.209-3.151 22.634-7.518 29.545-14.426 6.91-6.909 11.281-16.332 14.435-29.542 3.024-12.669 4.935-28.845 6.884-49.665 1.948 20.811 3.857 36.983 6.879 49.65 3.151 13.209 7.518 22.633 14.426 29.544 6.909 6.91 16.333 11.28 29.543 14.434 12.67 3.024 28.846 4.935 49.668 6.884Z"></path>
</svg>