<svg width="512" height="512" viewBox="0 0 512 512" fill="none" xmlns="http://www.w3.org/2000/svg">
<g clip-path="url(#clip0_48_27)">
<mask id="mask0_48_27" style="mask-type:luminance" maskUnits="userSpaceOnUse" x="0" y="0" width="512" height="512">
<path d="M512 0H0V512H512V0Z" fill="white"/>
</mask>
<g mask="url(#mask0_48_27)">
<path d="M374.3 343.726L371.26 320.412L368.22 343.726C366.609 356.033 356.929 365.714 344.63 367.316L321.316 370.356L344.63 373.396C356.937 375.007 366.618 384.687 368.22 396.986L371.26 420.3L374.3 396.986C375.911 384.678 385.591 374.998 397.89 373.396L421.204 370.356L397.89 367.316C385.583 365.705 375.902 356.025 374.3 343.726Z" fill="black"/>
<path d="M411.119 316.329C425.028 288.227 432.4 257.084 432.4 224.804C432.4 183.188 420.179 143.459 397.451 109.689C433.399 57.4111 449.315 17.7849 436.112 4.59054C422.909 -8.60385 381.862 7.89774 328.197 45.2158C297.321 27.5343 262.243 18.1036 225.7 18.1036C192.938 18.1036 161.33 25.674 132.891 39.9966C120.894 25.0797 102.506 15.5198 81.8708 15.5198C45.7241 15.5198 16.4157 44.8282 16.4157 80.975C16.4157 101.611 25.9756 119.998 40.8925 131.996C26.5785 160.434 18.9994 192.033 18.9994 224.804C18.9994 261.261 28.3785 296.271 45.9825 327.086C8.13044 381.294 -8.93096 422.582 4.59069 436.104C17.8798 449.393 57.9711 433.167 110.783 396.684C144.501 419.327 184.162 431.496 225.691 431.496C257.971 431.496 289.114 424.132 317.216 410.223C329.463 426.776 349.117 437.525 371.243 437.525C408.285 437.525 438.42 407.39 438.42 370.347C438.42 348.222 427.663 328.559 411.11 316.321L411.119 316.329ZM403.591 27.1209C412.772 36.3018 405.331 60.6064 385.488 93.6526C381.216 88.4679 376.677 83.464 371.871 78.6582C359.935 66.7213 346.792 56.4293 332.719 47.8857C367.979 26.0616 394.014 17.5438 403.6 27.1209H403.591ZM32.7795 80.9836L56.0936 77.9434C68.4009 76.3328 78.0813 66.6524 79.6833 54.3537L82.7235 31.0396L85.7637 54.3537C87.3743 66.661 97.0547 76.3415 109.353 77.9434L132.667 80.9836L109.353 84.0238C97.0461 85.6344 87.3656 95.3148 85.7637 107.614L82.7235 130.928L79.6833 107.614C78.0727 95.3062 68.3922 85.6258 56.0936 84.0238L32.7795 80.9836ZM27.1813 403.523C17.5009 393.842 26.2942 367.376 48.6093 331.565C57.1874 345.733 67.531 358.961 79.5369 370.976C84.4202 375.859 89.5015 380.467 94.7638 384.79C61.175 405.116 36.457 412.807 27.1813 403.531V403.523ZM98.6739 382.387C93.1016 377.883 87.7274 373.06 82.5943 367.927C44.3633 329.696 23.3143 278.874 23.3143 224.813C23.3143 192.998 30.6177 162.303 44.4064 134.64C55.0256 142.072 67.9358 146.439 81.8795 146.439C118.026 146.439 147.334 117.13 147.334 80.9836C147.334 67.0399 142.959 54.1298 135.535 43.5105C163.199 29.7133 193.894 22.4185 225.708 22.4185C279.769 22.4185 330.592 43.4675 368.823 81.6984C373.895 86.7712 378.65 92.0679 383.111 97.5627C356.765 140.246 310.8 196.564 253.716 253.647C197.098 310.266 141.237 355.947 98.6739 382.387ZM225.7 427.207C185.608 427.207 147.309 415.623 114.598 394.049C158.858 363.018 211.636 318.241 264.938 264.938C318.241 211.636 363.759 157.997 394.815 113.513C416.467 146.267 428.103 184.644 428.103 224.813C428.103 256.205 420.98 286.496 407.536 313.866C397.063 307.123 384.618 303.187 371.26 303.187C334.218 303.187 304.082 333.322 304.082 370.364C304.082 383.722 308.018 396.167 314.762 406.64C287.383 420.076 257.101 427.207 225.708 427.207H225.7ZM371.251 432.375C337.06 432.375 309.241 404.556 309.241 370.364C309.241 336.173 337.06 308.354 371.251 308.354C405.443 308.354 433.262 336.173 433.262 370.364C433.262 404.556 405.443 432.375 371.251 432.375Z" fill="black"/>
</g>
</g>
<defs>
<clipPath id="clip0_48_27">
<rect width="512" height="512" fill="white"/>
</clipPath>
</defs>
</svg>
