<?xml version="1.0" encoding="UTF-8"?>
<svg xmlns="http://www.w3.org/2000/svg" version="1.1" viewBox="0 0 128 128">
  <defs>
    <style>
      .cls-1 {
        fill: #fff;
        fill-rule: evenodd;
      }
    </style>
  </defs>
  <!-- Generator: Adobe Illustrator 28.7.1, SVG Export Plug-In . SVG Version: 1.2.0 Build 142)  -->
  <g>
    <g id="Layer_1">
      <path class="cls-1" d="M121.54,0c-1.22.23-2.44.46-3.66.69-3.45,1.06-6.86,2.54-9.79,4.25-2.8,1.68-5.61,3.36-8.41,5.04-1.45.99-2.9,1.98-4.35,2.97-.44.22-4.26-1.94-5.14-2.37-4.7-2.29-10.16-3.56-16.02-4.65-8.81-1.63-19.21-.13-26.21,2.08-2.04.76-4.09,1.52-6.13,2.27-1.09.49-2.18.99-3.26,1.48-2.56-5.65-13.95-9.06-21.56-5.93-5.01,2.06-8.61,5.98-10.58,11.08-3.28,8.49,1.35,17.3,6.23,20.87-.96,2.21-1.91,4.42-2.87,6.63-1.49,3.86-2.25,8.15-3.07,12.66-1.89,10.45.59,21.97,3.56,29.48,1.19,2.51,2.37,5.01,3.56,7.52.22.47-3.45,5.47-4.06,6.43-3.11,4.95-5.85,9.91-7.91,15.92-.69,2.02-1.56,5.51-.49,7.81,1.48,3.21,6.82,2.45,10.09,1.38,5.64-1.83,10.51-4.91,15.13-7.81,1.91-1.25,3.82-2.51,5.74-3.76,9.49,6.59,26.37,12.92,43.12,9.5,3.69-.75,7.32-1.51,10.58-2.77,2.08-.89,4.15-1.78,6.23-2.67,2.69,2.3,4.53,4.78,8.21,6.23,9.09,3.59,18.39-.96,22.35-6.53,5.76-8.1,4.02-21.77-3.86-26.31.63-2.86,2.77-6.45,3.76-9.59,2.26-7.21,3.45-18.67,1.58-27.4-1.16-5.44-2.64-10.3-4.65-14.84-1.55-2.77-3.1-5.54-4.65-8.31,4.39-6.23,9.08-13.13,11.57-21.07,1.65-5.25,1.61-10.43-5.04-10.29ZM9.87,23.15c2.34-1.01,5.7-.56,8.01-1.29,4.79-1.51,5.83-6.86,6.03-12.86.4,2.57.79,5.14,1.19,7.71,1.52,4.97,6.72,6.2,12.96,6.33-2.47.36-4.95.73-7.42,1.09-5.14,1.55-6.61,6.54-6.63,13.06-.4-2.57-.79-5.14-1.19-7.71-1.5-4.91-6.71-6.31-12.96-6.33ZM14.82,116.72c-2.43.62-5.61.57-6.82-1.09-1.18-1.6-.79-4.84-.2-6.82,1.59-5.27,4.73-9.01,6.63-13.55.96,1.42,1.91,2.84,2.87,4.25,2.04,2.86,7.35,9.52,10.39,10.98.03.07.07.13.1.2-4.11,2.12-7.99,4.76-12.96,6.03ZM28.76,110.09c-3.23-1.87-6.04-5.41-8.31-8.31-7.5-9.56-16.02-26.13-12.76-44.61.77-4.35,1.52-8.53,2.97-12.26.92-2.14,1.85-4.29,2.77-6.43,1.12.59,2.24,1.19,3.36,1.78,1.83.78,3.86,1.01,6.13,1.38,2.82.46,5.78-.54,7.62-1.29,6.2-2.51,13.6-9.68,11.87-19.49-.4-2.23-.94-4.24-1.78-6.03-.43-.76-.86-1.52-1.29-2.27,4.45-1.47,8.53-3.57,13.65-4.85,2.6-.4,5.21-.79,7.81-1.19,1.32-.07,2.64-.13,3.96-.2,20.82-.03,37.24,9.61,46.19,21.46-5.4,9.9-13.27,17.98-20.08,26.51-3.1,3.49-6.2,6.99-9.3,10.48l-4.45,4.45-7.02,7.02c-2.01,1.98-4.02,3.96-6.03,5.93-5.21,4.55-10.42,9.1-15.63,13.65-4.15,3.16-8.31,6.33-12.46,9.5-2.41,1.58-4.81,3.17-7.22,4.75ZM123.82,114.14c-2.46,5.65-7.61,9.24-14.64,10.39-12.96,2.1-23.37-12.42-18.6-24.63,1.8-4.61,5.58-8.38,10.19-10.19,1.56-.61,3.43-.52,5.14-1.19,13.62-.08,23.88,11.88,17.9,25.62ZM119.56,42.24c3.45,8.11,6.29,21.25,3.76,32.74-.76,3.47-1.46,6.9-2.67,9.99-.82,1.91-1.65,3.82-2.47,5.74-.99-.53-1.98-1.06-2.97-1.58-2.54-1.11-6.55-2.18-10.39-1.48-9.6,1.75-19.65,11.18-15.83,23.94.63,2.12,1.61,3.97,2.67,5.64-10.48,5.16-27.3,8.32-41.44,4.06-4.45-1.34-8.85-2.87-12.56-5.04-1.42-.86-2.84-1.71-4.25-2.57-.03-.07-.07-.13-.1-.2,2.01-1.45,4.02-2.9,6.03-4.35,4.68-3.76,9.36-7.52,14.05-11.28,4.81-4.32,9.63-8.64,14.44-12.96,1.45-1.45,2.9-2.9,4.35-4.35,3.07-3.07,6.13-6.13,9.2-9.2l4.35-4.35c3.26-3.66,6.53-7.32,9.79-10.98,4.41-5.51,9.15-10.72,13.45-16.42,1.73-2.29,3.86-4.54,5.24-7.12,1.86,1.07,4.35,7.47,5.34,9.79ZM117.68,13.55c-.88,3.61-2.45,7.05-4.15,9.99-.63,1.09-1.25,2.18-1.88,3.26-.07.03-.13.07-.2.1-1.94-3.36-11.4-11.72-15.23-13.06-.03-.07-.07-.13-.1-.2,2.97-2.63,9.08-5.31,13.25-6.63,1.15-.23,2.31-.46,3.46-.69,4.44.02,5.93,2.77,4.85,7.22ZM99.98,105.64c-2.27.3-4.55.59-6.82.89,1.25.13,2.51.26,3.76.4,4.5.82,7.9,1.54,9.2,5.54.75,2.32.38,5.76,1.29,8.11v.2c.92-2.34.53-5.87,1.29-8.21,1.5-4.64,6.94-5.94,12.96-5.93v-.1c-6.27-1.12-11.33-.69-13.06-6.33-.71-2.33-.26-5.49-1.19-7.91-.86,7.01-1.08,11.77-7.42,13.35Z"/>
    </g>
  </g>
</svg>