<svg version="1.1" xmlns="http://www.w3.org/2000/svg" xmlns:xlink="http://www.w3.org/1999/xlink" x="0px" y="0px" width="226.1px" height="169.45px" viewBox="0 0 226.1 169.45" style="overflow:visible;enable-background:new 0 0 226.1 169.45;" xml:space="preserve">
          <defs>
          </defs>
    <g>
          	<g>
          		<path d="M205.8,155.86l-4.35,13.21h-3.69l-4.35-13.21h3.81l1.1,3.97l1.36,5.76l1.28-5.76l1.2-3.97H205.8z"></path>
                <path d="M208.09,150.85h3.61v3.28h-3.61V150.85z M208.09,155.86h3.61v13.21h-3.61V155.86z"></path>
                <path d="M222.44,169.07c-0.1-0.46-0.2-0.87-0.28-1.33c-0.9,1.08-2.33,1.71-4.07,1.71c-2.79,0-4.58-1.61-4.58-4.02
          			c0-2.1,1.36-3.45,4.02-3.99l4.61-0.92v-0.97c0-0.97-0.79-1.43-2.23-1.43c-1.48,0-2.18,0.51-2.35,1.74l-3.3-0.05
          			c0.26-2.89,2.07-4.25,5.63-4.25c3.79,0,5.71,1.66,5.71,4.91v5.83c0,1.23,0.13,2.1,0.51,2.76H222.44z M222.13,163.8v-0.97
          			l-3.38,0.72c-1.1,0.23-1.71,0.79-1.71,1.66c0,0.95,0.74,1.59,2.07,1.59C220.83,166.79,222.13,165.74,222.13,163.8z"></path>
          	</g>
        <g>
          		<polygon points="22.71,117.09 22.71,0 125.15,0 		"></polygon>
            <polygon points="184.91,51.98 184.91,169.07 82.47,169.07 		"></polygon>
            <polygon points="18.56,169.08 166.42,0.04 147.87,0.04 0,169.08 		"></polygon>
            <polygon points="59.83,169.08 207.7,0.04 189.14,0.04 41.28,169.08 		"></polygon>
          	</g>
          </g>
          </svg>