<?xml version="1.0" encoding="UTF-8"?>
<svg id="Layer_1" xmlns="http://www.w3.org/2000/svg" version="1.1" viewBox="0 0 226.1 169.4">
  <!-- Generator: Adobe Illustrator 29.1.0, SVG Export Plug-In . SVG Version: 2.1.0 Build 142)  -->
  <defs>
    <style>
      .st0 {
        fill: #fff;
      }
    </style>
  </defs>
  <g>
    <path class="st0" d="M205.8,155.9l-4.4,13.2h-3.7l-4.4-13.2h3.8l1.1,4,1.4,5.8,1.3-5.8,1.2-4h3.6Z"/>
    <path class="st0" d="M208.1,150.9h3.6v3.3h-3.6v-3.3ZM208.1,155.9h3.6v13.2h-3.6v-13.2Z"/>
    <path class="st0" d="M222.4,169.1c-.1-.5-.2-.9-.3-1.3-.9,1.1-2.3,1.7-4.1,1.7-2.8,0-4.6-1.6-4.6-4s1.4-3.4,4-4l4.6-.9v-1c0-1-.8-1.4-2.2-1.4s-2.2.5-2.4,1.7h-3.3c.3-2.9,2.1-4.3,5.6-4.3s5.7,1.7,5.7,4.9v5.8c0,1.2.1,2.1.5,2.8h-3.7ZM222.1,163.8v-1l-3.4.7c-1.1.2-1.7.8-1.7,1.7s.7,1.6,2.1,1.6c1.7,0,3-1.1,3-3Z"/>
  </g>
  <g>
    <polygon class="st0" points="22.7 117.1 22.7 0 125.2 0 22.7 117.1"/>
    <polygon class="st0" points="184.9 52 184.9 169.1 82.5 169.1 184.9 52"/>
    <polygon class="st0" points="18.6 169.1 166.4 0 147.9 0 0 169.1 18.6 169.1"/>
    <polygon class="st0" points="59.8 169.1 207.7 0 189.1 0 41.3 169.1 59.8 169.1"/>
  </g>
</svg>