<svg xmlns="http://www.w3.org/2000/svg" width="24" height="24" fill="#272837" data-ember-extension="1"
     data-test="smart-link-block" data-test-icon="instagram" class="social-icon--fill social-icon">
    <path fill-rule="evenodd" clip-rule="evenodd"
          d="M6.74.25a6.5 6.5 0 00-6.5 6.5v10.5a6.5 6.5 0 006.5 6.5h10.5a6.5 6.5 0 006.5-6.5V6.75a6.5 6.5 0 00-6.5-6.5H6.74zm-5.5 6.5a5.5 5.5 0 015.5-5.5h10.5a5.5 5.5 0 015.5 5.5v10.5a5.5 5.5 0 01-5.5 5.5H6.74a5.5 5.5 0 01-5.5-5.5V6.75zm10.75-.25a5.5 5.5 0 100 11 5.5 5.5 0 000-11zM7.49 12a4.5 4.5 0 119 0 4.5 4.5 0 01-9 0zm12.35-6.85a1 1 0 10-2 0 1 1 0 002 0z"></path>
</svg>