<svg xmlns="http://www.w3.org/2000/svg" width="24" height="24" fill="#272837" data-ember-extension="1"
     data-test="smart-link-block" data-test-icon="spotify" class="social-icon--fill social-icon">
    <path fill-rule="evenodd" clip-rule="evenodd"
          d="M11.99.45C5.5.45.24 5.71.24 12.2S5.5 23.95 11.99 23.95s11.75-5.26 11.75-11.75S18.48.45 11.99.45zM1.24 12.2c0-5.937 4.813-10.75 10.75-10.75S22.74 6.263 22.74 12.2s-4.813 10.75-10.75 10.75S1.24 18.137 1.24 12.2zM7.2 8.508a9.5 9.5 0 015.383-.661 9.5 9.5 0 014.978 2.128.5.5 0 00.638-.77 10.5 10.5 0 00-5.49-2.35 10.5 10.5 0 00-5.909.737.5.5 0 00.4.916zm4.808 3.255a9.5 9.5 0 00-5.282.627.5.5 0 11-.392-.92 10.5 10.5 0 015.826-.695 10.56 10.56 0 015.394 2.266.5.5 0 11-.628.778 9.56 9.56 0 00-4.918-2.056zm-5.814 4.488a9.57 9.57 0 015.289-.614 9.5 9.5 0 014.902 2.061.5.5 0 00.63-.776 10.5 10.5 0 00-5.406-2.277 10.571 10.571 0 00-5.803.684.5.5 0 00.388.922z"></path>
</svg>